<svg viewBox="0 0 2048 1329.1012" xmlns="http://www.w3.org/2000/svg"><path d="M173.67 538.876c-23.216 1.96-44.224 10.03-61.82 22.58l.38-.257c-48.538 42.393-20.48 117.35 78.848 117.35 56.73 0 113.254-36.455 157.696-92.98-63.693-30.515-116.326-53.043-175.104-46.694zm372.736-338.33H121.43c-55.115 0-99.915 44.16-100.95 99.027v424.852c.343 54.823 44.865 99.134 99.736 99.134.505 0 1.01-.005 1.51-.012h-.075H546.63c55.114 0 99.914-44.16 100.948-99.026V720.33s-161.79-66.766-245.76-107.11C348.16 679.983 277.3 722.376 202.547 722.376c-125.337 0-167.935-109.158-107.314-180.02 17.31-19.857 41.032-33.734 67.913-38.4l.695-.1c52.634-12.084 137.626 8.19 216.474 34.405 13.656-24.358 25.392-52.58 33.74-82.223l.666-2.77H168.96v-23.142h125.338v-49.562h-152.37V356.4H295.73v-62.874l-.002-.207c0-5.43 4.4-9.83 9.83-9.83h61.648v74.753h150.937v22.323H366.388v44.442h122.88c-12.48 49.84-30.532 93.63-53.942 133.922l1.31-2.44c40.96 14.13 74.75 26.214 99.122 34.406 30.793 12.128 68.012 23.28 106.326 31.483l4.88.874V299.67c-.347-54.82-44.867-99.127-99.736-99.127-.29 0-.577 0-.865.004h.044zm549.07 163.43v275.047h64.716v-286.72h-50.586c-10.035-.41-14.13 3.686-14.13 11.674zm-177.358-15.77c-5.298.47-9.762 3.64-12.044 8.108l-.04.085-135.577 280.37h46.49l36.454-76.8h109.16l36.453 76.8h70.86l-133.53-288.563zM865.485 534.37l42.394-90.93 42.393 90.93zm663.142-83.763c-7.626-8.737-17.07-15.685-27.76-20.288l-.503-.193c-9.496-5.217-20.81-8.286-32.84-8.286-1.272 0-2.535.035-3.79.103l.176-.008c-.648-.017-1.412-.027-2.177-.027-11.607 0-22.684 2.266-32.813 6.38l.584-.21c-10.153 2.852-18.94 7.726-26.288 14.196l.074-.064v-20.48h-42.598c-14.13 0-24.37 0-22.323 26.214V712.34h64.716v-72.908c5.358 2.206 11.563 3.67 18.055 4.087l.174.008h22.323c.864.025 1.88.04 2.9.04 14.984 0 29.263-3.026 42.258-8.5l-.716.27c13.47-6.687 24.888-15.486 34.305-26.1l.1-.115c9.434-10.877 17.014-23.667 22.06-37.667l.263-.835c5.23-13.14 8.265-28.367 8.265-44.303 0-1.49-.026-2.97-.08-4.447l.007.214c.002-.282.004-.616.004-.95 0-13.44-2.25-26.35-6.396-38.38l.248.827c-4.27-12.672-10.472-23.63-18.363-33.14l.136.168zm-50.585 117.35c-2.048 10.035-6.144 16.18-8.192 24.37-2.406 6.64-6.594 12.15-11.988 16.114l-.095.068c-4.374 3.64-9.99 5.924-16.132 6.143l-.047.002c-.968.084-2.095.132-3.233.132-4.638 0-9.09-.8-13.223-2.266l.276.086c-9.338-3.87-16.61-11.142-20.39-20.233l-.09-.246c-1.385-3.323-2.19-7.182-2.19-11.23 0-1.022.052-2.03.152-3.026l-.01.125V479.69c2.17-3.92 4.906-7.243 8.142-9.994l.05-.042c4.096-2.048 6.144-6.144 10.035-8.192 2.9-2.375 6.204-4.43 9.756-6.032l.28-.112c3.003-1.338 6.507-2.118 10.194-2.118.664 0 1.323.025 1.975.075l-.087-.005c.163-.004.355-.007.548-.007 6.047 0 11.547 2.34 15.644 6.163l-.013-.012c4.32 4.796 8.306 10.084 11.807 15.704l.277.475c3.67 7.584 6.52 16.386 8.108 25.62l.084.594c1.387 8.778 2.18 18.9 2.18 29.208 0 2.55-.047 5.086-.144 7.61l.01-.363c-.092 10.87-1.43 21.38-3.88 31.456l.194-.94zm267.06-130.662c-7.99-5.795-17.506-10.02-27.818-12.012l-.445-.072c-12.25-2.474-26.39-3.96-40.85-4.094h-.11c-29.02.53-56.01 8.76-79.153 22.722l.714-.4 14.132 22.324c17.36-15.095 39.786-24.773 64.426-26.2l.29-.014c.566-.044 1.225-.07 1.89-.07 3.686 0 7.19.78 10.358 2.182l-.163-.065c2.048 0 6.144 4.096 8.192 6.144l6.144 12.082c1.35 4.576 2.125 9.833 2.125 15.272 0 1.04-.028 2.073-.084 3.098l.007-.143v22.322l-8.192 2.048c-8.192 2.048-18.227 6.144-26.214 8.192s-18.226 6.144-26.213 10.035c-9.945 4.33-17.947 8.37-25.71 12.784l1.34-.7c-7.103 3.704-13.138 8.432-18.174 14.07l-.054.06c-4.508 5.314-8.525 11.294-11.835 17.698l-.25.53c-2.55 6.6-4.03 14.24-4.03 22.222s1.48 15.62 4.177 22.654l-.146-.433c1.622 7.597 5.988 13.97 11.988 18.165l.095.063c5.353 5.81 12.324 10.057 20.197 12.024l.282.06c7.795 2.373 16.784 3.853 26.08 4.093l.134.003c.876.05 1.9.077 2.932.077 5.447 0 10.712-.776 15.692-2.223l-.397.1c5.236-.153 10.09-1.656 14.264-4.17l-.132.073 12.083-6.144c2.048-2.047 6.144-4.095 10.035-8.19v16.178h64.717V479.894c-.106-8.927-2.367-17.303-6.285-24.662l.14.29c-4.327-7.16-9.718-13.203-16.03-18.116l-.148-.11zm-45.262 156.672l-18.227 12.083c-4.732 2.19-10.233 3.655-16.02 4.087l-.16.01c-4.095 0-6.143 0-8.19-2.05s-4.097-2.047-6.145-6.143-2.048-6.144-4.096-10.035c-1.338-3.005-2.118-6.51-2.118-10.196 0-.664.025-1.323.075-1.975l-.006.086c-.074-.634-.116-1.368-.116-2.113 0-4.564 1.588-8.756 4.24-12.056l-.028.037c2.32-6.063 6.553-10.96 11.95-14.06l.134-.07 18.227-12.084c5.26-3.88 11.268-7.254 17.678-9.84l.55-.195h2.253zm-482.918-165.07V637.18h64.717V416.815h-50.587c-10.035 0-14.13 4.096-14.13 12.083zm764.108-7.78l-58.778 131.89-66.765-131.89h-70.656l105.268 202.34c-1.908 11.357-5.407 21.54-10.304 30.874l.27-.56c-16.18 20.48-68.814 18.226-68.814 18.226l2.048 38.502h42.19c44.44 0 61.44-42.394 64.716-50.586l107.315-238.797zm-699.187-63.694c0 15.835-14.487 28.672-32.358 28.672s-32.358-12.837-32.358-28.672 14.487-28.672 32.358-28.672 32.358 12.838 32.358 28.673z"/></svg>