<svg viewBox="0 0 1024 1176.463" xmlns="http://www.w3.org/2000/svg"><path d="M747.492 692.788h-47.227l137-278.76h47.227zm-50.425-278.76l54.424 111.488-23.673 48.106L649.88 414.07h47.187zm-52.945 208.78h-41.748V511.64c-4.5-35.003-33.776-61.876-69.468-62.58l-.072-.002c-36.983.13-67.15 29.14-69.132 65.646l-.008.177c-.05.947-.08 2.054-.08 3.168 0 34.675 28.11 62.784 62.784 62.784 2.267 0 4.505-.12 6.71-.354l-.274.024h14.716v42.308h-14.716c-2.11.152-4.57.24-7.053.24-57.65 0-104.383-46.735-104.383-104.385 0-1.33.025-2.654.074-3.972l-.005.19c1.958-60.022 51.085-107.935 111.403-107.935 59.177 0 107.583 46.118 111.237 104.375l.016.32zm-347.98-.04h-19.795V580.26h19.795c.32.006.7.01 1.08.01 35.54 0 64.35-28.81 64.35-64.35 0-.38-.004-.76-.01-1.138v.057c0-36.132-29.29-65.42-65.42-65.422h-63.943c-2.334.012-4.303 1.56-4.95 3.682l-.01.037V685.15h-41.188V453.137v-.006c0-25.504 20.676-46.18 46.18-46.18h64.101c59.772 0 108.288 48.192 108.815 107.84v.05c.003.34.005.744.005 1.147 0 58.986-47.818 106.804-106.804 106.804-.776 0-1.55-.007-2.325-.024l.115.002zm694.84-162.672c-5.32-153.076-45.548-276.28-136.28-343.58S627.564 25.86 456.17 34.018c-73.796 1.168-144.11 14.508-209.53 38.09l4.51-1.42c-56.19 21.09-102.86 56.694-136.873 102.295l-.566.793c-66.82 92.975-87.495 233.332-80.18 395.086 6.96 153.556 46.748 275.04 138.56 341.302 91.335 65.86 239.772 86.775 396.247 80.177 151.877-6.4 275.242-46.667 341.303-138.6 65.943-91.773 86.977-227.254 81.34-391.646z"/></svg>